<?xml version="1.0" encoding="UTF-8"?>
<svg version="1.1" xmlns="http://www.w3.org/2000/svg" width="1024" height="1024">
<path d="M0 0 C0.77184631 -0.00014603 1.54369263 -0.00029205 2.33892822 -0.0004425 C4.85480702 0.00024641 7.37060897 0.00799026 9.88647461 0.01586914 C11.64481058 0.01773696 13.40314708 0.01915914 15.16148376 0.02015686 C19.76290351 0.02395341 24.3642911 0.03375889 28.96569824 0.04486084 C34.50083502 0.05694734 40.03598262 0.06149084 45.57112885 0.06731415 C53.9562143 0.07697247 62.34122936 0.09614897 70.72631836 0.11352539 C70.72631836 13.64352539 70.72631836 27.17352539 70.72631836 41.11352539 C65.82401367 41.09032227 60.92170898 41.06711914 55.87084961 41.04321289 C52.73998484 41.03297756 49.6091411 41.02334849 46.47827148 41.01586914 C41.52355594 41.00397612 36.56891526 40.99000326 31.61425781 40.96264648 C27.61365127 40.94069908 23.61312516 40.9289113 19.612463 40.9237709 C18.09647038 40.92011401 16.58048147 40.91297481 15.0645237 40.90206528 C-5.93854908 40.68586027 -5.93854908 40.68586027 -24.30493164 49.79711914 C-35.07099346 60.76846604 -34.38609104 77.01826769 -34.59008789 91.34008789 C-34.62125954 93.18333145 -34.62125954 93.18333145 -34.65306091 95.06381226 C-34.71798614 98.95533124 -34.77717402 102.84691263 -34.83618164 106.73852539 C-34.8794212 109.39087537 -34.92303714 112.04321923 -34.96704102 114.69555664 C-35.07360837 121.16814861 -35.17547632 127.64080144 -35.27368164 134.11352539 C-34.37238525 134.10305176 -33.47108887 134.09257812 -32.54248047 134.08178711 C-29.13359923 134.04729001 -25.72490886 134.02242789 -22.31591797 134.00366211 C-20.85267167 133.99372876 -19.38944453 133.98017746 -17.92626953 133.96264648 C3.81759006 133.70903028 24.09896998 137.24408476 40.38647461 152.78540039 C41.54469727 153.93782227 41.54469727 153.93782227 42.72631836 155.11352539 C43.4262793 155.77868164 44.12624023 156.44383789 44.84741211 157.12915039 C49.21175792 161.58707867 52.21375169 166.41355697 55.03881836 171.92602539 C55.36446777 172.55323486 55.69011719 173.18044434 56.02563477 173.82666016 C61.46113219 185.00716461 62.15758131 196.30629735 62.06689453 208.53051758 C62.06604648 210.14803044 62.06652686 211.76554445 62.06822205 213.38305664 C62.06907649 217.73768245 62.05154082 222.09205615 62.03050017 226.4466238 C62.01164072 231.0109724 62.00997567 235.57532792 62.00642395 240.13970947 C61.99713055 248.76669471 61.9725537 257.39356476 61.94237548 266.02049947 C61.90874686 275.84886951 61.89232426 285.6772453 61.87728918 295.50565863 C61.8460015 315.70834496 61.79329408 335.91092789 61.72631836 356.11352539 C90.71239286 356.07719422 119.69836473 356.02051206 148.68433963 355.93560444 C152.11003459 355.92558754 155.53573002 355.91574332 158.96142578 355.90600586 C159.98437383 355.9030938 159.98437383 355.9030938 161.0279875 355.90012291 C172.05567884 355.86914135 183.08334939 355.85213302 194.11107603 355.84033117 C205.43504635 355.82789964 216.75888891 355.80005767 228.08279818 355.75891232 C234.43970966 355.73629943 240.79646614 355.72061463 247.1534214 355.72164154 C253.14115914 355.72238823 259.12855424 355.70443309 265.11620331 355.67235756 C267.30948257 355.66386398 269.50280028 355.66210491 271.69608879 355.6677227 C291.00570431 355.73236097 291.00570431 355.73236097 307.93725586 347.09008789 C313.33104341 341.13101256 316.63297067 332.97759808 317.03705978 324.97546673 C317.07820066 324.16572283 317.11934153 323.35597893 317.1617291 322.52169734 C317.20034519 321.64600618 317.23896128 320.77031502 317.27874756 319.86808777 C317.34185784 318.47640028 317.34185784 318.47640028 317.40624309 317.05659789 C317.86530303 306.05287998 317.88225302 295.05205703 317.88745117 284.04052734 C317.8920937 281.70885645 317.89712021 279.37718629 317.90249634 277.04551697 C317.91546784 270.78182632 317.92203276 264.5181463 317.926507 258.25444436 C317.92945724 254.33335179 317.9335651 250.41226202 317.93801117 246.49117088 C317.95008192 235.59839799 317.96048141 224.70562753 317.96388626 213.81284809 C317.96421561 212.77404061 317.96421561 212.77404061 317.96455161 211.71424712 C317.96476989 211.02027419 317.96498817 210.32630127 317.96521306 209.61129886 C317.9656565 208.20554689 317.96610306 206.79979493 317.96655273 205.39404297 C317.96688488 204.34814145 317.96688488 204.34814145 317.96722373 203.28111061 C317.97118417 191.94688444 317.98869282 180.61272204 318.01191226 169.27852056 C318.03565043 157.59573562 318.04783096 145.91298593 318.04925418 134.23017663 C318.05030055 127.68860833 318.05617521 121.14713085 318.07407379 114.6055851 C318.09055538 108.46500332 318.09270949 102.32458077 318.08393478 96.18398476 C318.08316499 93.93542046 318.08749952 91.68684756 318.09739304 89.4383049 C318.11013302 86.36206769 318.10422485 83.28639312 318.09381104 80.2101593 C318.10186744 79.32756654 318.10992384 78.44497377 318.11822438 77.53563577 C318.0393553 67.5300602 315.20143205 58.80748402 308.72631836 51.11352539 C300.84394506 43.53359328 289.85153374 42.03545706 279.34399414 41.90820312 C278.63110733 41.89830353 277.91822052 41.88840393 277.18373108 41.87820435 C274.84639718 41.84682134 272.50904302 41.82192454 270.17163086 41.79711914 C268.54352311 41.77652953 266.91542047 41.75553255 265.287323 41.73414612 C261.01635896 41.67913263 256.74534835 41.62963256 252.4743042 41.58129883 C247.3421625 41.52206573 242.21010532 41.45595253 237.07803345 41.39099884 C229.29418034 41.2932503 221.51027131 41.20421597 213.72631836 41.11352539 C213.72631836 27.91352539 213.72631836 14.71352539 213.72631836 1.11352539 C233.25930851 0.99319896 233.25930851 0.99319896 241.68920898 0.96704102 C247.40519739 0.94921922 253.12103945 0.92830978 258.83691406 0.88720703 C263.45351306 0.85422303 268.06995478 0.83659159 272.68666267 0.82889366 C274.43381279 0.82341925 276.1809559 0.81273311 277.92803764 0.79633522 C300.64336864 0.59192625 323.42610872 3.78428149 340.91381836 19.67602539 C357.18889849 37.05167446 360.49433166 61.9253083 359.8059082 84.7668457 C359.76651123 85.92845215 359.76651123 85.92845215 359.72631836 87.11352539 C359.67338623 88.71212402 359.67338623 88.71212402 359.61938477 90.34301758 C359.35026501 98.26769035 359.04864318 106.19084989 358.72631836 114.11352539 C359.34002792 114.10908417 359.95373749 114.10464294 360.58604431 114.10006714 C367.06043127 114.05530358 373.53477323 114.02544272 380.00927734 114.00366211 C382.41522003 113.99369695 384.82115091 113.98011996 387.22705078 113.96264648 C414.1697236 113.77208046 441.65748536 113.97369818 462.44116211 133.70336914 C477.83760517 149.94201079 480.88955935 171.02734518 480.85571289 192.50195312 C480.85704177 193.96034125 480.8587925 195.41872904 480.86092854 196.8771162 C480.865418 200.84938388 480.86358674 204.82162619 480.86050487 208.79389429 C480.8586527 212.16825431 480.8604002 215.54260858 480.86218065 218.91696835 C480.8679127 229.85149889 480.86170203 240.78600834 480.85332823 251.72053576 C480.85065595 255.48389596 480.84881855 259.24725638 480.84699732 263.01061708 C480.82430213 309.22002597 480.78562462 355.43045124 480.43672943 401.63872147 C480.41394702 404.90756547 480.39642201 408.17639826 480.38043213 411.44528198 C480.35497049 416.50310187 480.31506544 421.56059671 480.26325798 426.61821365 C480.24689854 428.41162041 480.23509317 430.20507673 480.22867012 431.9985466 C480.14849684 452.04333163 477.4466821 470.86466914 464.72631836 487.11352539 C463.96319336 488.16540039 463.20006836 489.21727539 462.41381836 490.30102539 C449.92289426 503.37292271 431.36118834 509.42949592 413.61263394 510.20599961 C411.33467335 510.24129666 409.05865172 510.24689784 406.78042603 510.24050903 C405.91360935 510.24206902 405.04679267 510.24362901 404.15370882 510.24523628 C401.26464571 510.24920657 398.37563571 510.24607137 395.48657227 510.24291992 C393.40531382 510.2442763 391.32405561 510.24605756 389.24279785 510.24822998 C383.58198984 510.25279256 377.92120005 510.25101521 372.26039171 510.24785089 C366.26680487 510.24530183 360.27321948 510.24767367 354.27963257 510.24923706 C344.15297165 510.25105949 334.02631801 510.24865899 323.8996582 510.24389648 C313.63793458 510.23912451 303.37622553 510.23902086 293.11450195 510.24389648 C195.85720987 510.28847214 195.85720987 510.28847214 156.56262159 509.81619024 C154.54055785 509.79366737 152.51851321 509.77615215 150.49638748 509.76025772 C126.39787621 509.54797662 103.29457039 507.62824709 84.53881836 490.55102539 C70.76135155 475.924844 66.34859058 455.9290208 66.53100586 436.44555664 C66.5352507 434.7043177 66.5352507 434.7043177 66.5395813 432.92790222 C66.55067745 429.26050013 66.57576207 425.59335229 66.60131836 421.92602539 C66.61136182 419.42277374 66.62048527 416.91951821 66.62866211 414.41625977 C66.65058207 408.31526318 66.68395276 402.21441246 66.72631836 396.11352539 C65.07631836 396.11352539 63.42631836 396.11352539 61.72631836 396.11352539 C61.72631836 464.75352539 61.72631836 533.39352539 61.72631836 604.11352539 C57.85685256 603.33963223 55.65128118 602.75865029 52.30053711 601.04711914 C51.50454102 600.64428711 50.70854492 600.24145508 49.88842773 599.82641602 C48.66349609 599.19509766 48.66349609 599.19509766 47.41381836 598.55102539 C46.57786133 598.1262793 45.7419043 597.7015332 44.88061523 597.26391602 C42.82635409 596.21917749 40.77511544 595.16892777 38.72631836 594.11352539 C39.05631836 594.77352539 39.38631836 595.43352539 39.72631836 596.11352539 C40.68078396 611.82549756 37.6177985 622.35059519 28.47631836 635.30102539 C20.63268437 643.32292378 9.68731289 649.68129293 -1.76678467 650.23377991 C-2.69944153 650.2315593 -3.63209839 650.22933868 -4.59301758 650.22705078 C-6.20635986 650.22686951 -6.20635986 650.22686951 -7.85229492 650.22668457 C-9.53814697 650.21901062 -9.53814697 650.21901062 -11.25805664 650.21118164 C-12.29591309 650.21017456 -13.33376953 650.20916748 -14.40307617 650.20812988 C-18.27662258 650.20290147 -22.15015323 650.1889402 -26.02368164 650.17602539 C-34.68618164 650.15540039 -43.34868164 650.13477539 -52.27368164 650.11352539 C-52.27368164 679.15352539 -52.27368164 708.19352539 -52.27368164 738.11352539 C-56.0130413 737.17868548 -57.98527634 736.20877232 -61.16040039 734.16430664 C-62.56902344 733.26228516 -62.56902344 733.26228516 -64.00610352 732.34204102 C-64.9812793 731.70975586 -65.95645508 731.0774707 -66.96118164 730.42602539 C-67.91702148 729.81307617 -68.87286133 729.20012695 -69.85766602 728.56860352 C-75.70370137 724.81072258 -81.50495459 720.98892664 -87.27368164 717.11352539 C-87.95406494 717.54834229 -88.63444824 717.98315918 -89.33544922 718.43115234 C-95.73433907 722.5183175 -102.16371972 726.55402893 -108.61352539 730.56030273 C-111.6606911 732.45795249 -114.6731478 734.37707371 -117.62915039 736.41430664 C-120.27368164 738.11352539 -120.27368164 738.11352539 -122.27368164 738.11352539 C-122.27368164 693.56352539 -122.27368164 649.01352539 -122.27368164 603.11352539 C-99.17368164 603.11352539 -76.07368164 603.11352539 -52.27368164 603.11352539 C-52.27368164 617.63352539 -52.27368164 632.15352539 -52.27368164 647.11352539 C-45.05061413 647.03929826 -37.82873289 646.95625672 -30.60620117 646.85107422 C-28.152489 646.81795088 -25.69870294 646.78988033 -23.24487305 646.76708984 C-19.70467836 646.7333121 -16.16515315 646.68098372 -12.62524414 646.62524414 C-11.53942047 646.61885422 -10.4535968 646.61246429 -9.33486938 646.60588074 C3.76415033 646.35664672 15.06494996 642.1677661 24.80444336 633.26586914 C32.35592826 624.80881999 36.11414898 615.15508386 35.91381836 603.92602539 C35.91317383 603.22799805 35.9125293 602.5299707 35.91186523 601.81079102 C35.88118578 596.86788235 35.88118578 596.86788235 34.72631836 592.11352539 C22.11266405 580.90887347 3.87210405 581.85230694 -11.76660156 582 C-14.53236483 581.99771898 -17.29801471 581.98188814 -20.0637331 581.96667576 C-26.67551951 581.93801156 -33.28636926 581.95489995 -39.89810013 581.98860115 C-47.56150108 582.02563639 -55.22404807 582.00450128 -62.88757324 581.98376465 C-83.07877118 581.95732694 -103.27001042 582.0088607 -123.46118164 582.05102539 C-168.60930664 582.07165039 -213.75743164 582.09227539 -260.27368164 582.11352539 C-260.27368164 434.27352539 -260.27368164 286.43352539 -260.27368164 134.11352539 C-199.22368164 134.11352539 -138.17368164 134.11352539 -75.27368164 134.11352539 C-75.27368164 112.33352539 -75.27368164 90.55352539 -75.27368164 68.11352539 C-72.75240417 47.9433056 -68.6262926 30.27957809 -53.27368164 16.11352539 C-37.94119541 4.30336708 -19.05565891 -0.09699195 0 0 Z M358.72631836 154.11352539 C358.72300821 155.00160165 358.71969807 155.88967791 358.71628761 156.80466557 C358.63488201 178.46577948 358.54273278 200.12682481 358.43879128 221.78784275 C358.38878092 232.26316955 358.34233716 242.73848897 358.30444336 253.21386719 C358.27138581 262.34976334 358.23147973 271.48560026 358.1835283 280.62143081 C358.15839943 285.45371365 358.13657883 290.28595788 358.1229744 295.11828804 C358.11002939 299.67781372 358.08784453 304.23720605 358.05893517 308.79665756 C358.0499556 310.45933898 358.04419203 312.12204181 358.04210472 313.78474617 C358.00822357 336.6988427 355.54335489 360.69313703 338.94506836 378.12133789 C319.95242971 395.17458738 294.93095186 396.280611 270.77050781 396.22705078 C268.97580466 396.22676826 267.1811014 396.22692792 265.38639832 396.22749329 C260.54421866 396.22777871 255.70206408 396.22192335 250.85989022 396.21491933 C245.78836461 396.20864318 240.71683834 396.20807863 235.64530945 396.20689392 C226.05502633 396.20379313 216.46475469 396.19559669 206.87447661 396.18554443 C195.95060988 396.17434432 185.02674259 396.16886304 174.10287154 396.163849 C151.64401413 396.15341297 129.18516689 396.13583788 106.72631836 396.11352539 C106.6516856 402.19666925 106.59748924 408.27954151 106.56152344 414.36303711 C106.54651644 416.4288396 106.52610436 418.49461067 106.5 420.56030273 C106.46325875 423.54426877 106.44651072 426.52781046 106.43334961 429.51196289 C106.41786575 430.42279633 106.4023819 431.33362976 106.38642883 432.27206421 C106.38380869 442.44952176 109.09238314 451.29656335 115.72631836 459.11352539 C123.2734009 466.26997218 132.30257467 469.2066934 142.61018372 469.27174377 C143.79281359 469.28153385 144.97544346 469.29132393 146.1939106 469.30141068 C147.48698065 469.30716488 148.7800507 469.31291908 150.11230469 469.31884766 C151.49995134 469.32843321 152.88759519 469.3384328 154.27523613 469.3488121 C158.07052378 469.37592566 161.86582391 469.39692009 165.66115546 469.41679788 C169.71527202 469.4390096 173.7693523 469.46664322 177.82344055 469.49345398 C187.48810789 469.55608152 197.15281868 469.60916453 206.8175478 469.66121864 C211.33668232 469.68580778 215.85581018 469.71156485 220.37493896 469.73718262 C242.96887228 469.86457267 265.56286037 469.97580894 288.15691829 470.07850516 C293.81289207 470.10435268 299.46885614 470.13179034 305.12481689 470.16033936 C321.31165645 470.24173661 337.49837363 470.30851045 353.68539429 470.34469604 C358.43969578 470.35571435 363.19389597 470.37351629 367.94815063 470.39724731 C373.46982752 470.42435522 378.99134086 470.43686751 384.5130825 470.43766212 C386.49198953 470.44026383 388.47089814 470.44785093 390.44976234 470.46112633 C411.5327336 470.74537105 411.5327336 470.74537105 429.72631836 461.11352539 C437.75675492 452.58890812 439.8282712 443.06791531 439.88453674 431.58934021 C439.89194371 430.48239724 439.89194371 430.48239724 439.89950031 429.35309178 C439.91481224 426.88839146 439.92322104 424.42371714 439.93164062 421.95898438 C439.94122911 420.18517331 439.95123975 418.41136448 439.9616394 416.63755798 C439.98871296 411.80753985 440.00974123 406.97751207 440.02964139 402.14745975 C440.05168234 397.02969124 440.0790249 391.91195079 440.10569763 386.79420471 C440.15003752 378.14113673 440.19074336 369.48805784 440.22900391 360.83496094 C440.26773816 352.07745773 440.30917765 343.31997418 440.35400391 334.5625 C440.35944045 333.49907422 440.36487699 332.43564845 440.37047827 331.33999765 C440.38142861 329.19983337 440.3923827 327.05966912 440.40334058 324.91950488 C440.49882413 306.2253302 440.58108632 287.5311529 440.64752316 268.83685184 C440.68562462 258.12862802 440.73222798 247.42064031 440.81024629 236.71262664 C440.85262162 230.88122805 440.88600652 225.04983756 440.91111678 219.21833879 C440.92540112 216.01198007 440.9463595 212.80591078 440.97778511 209.5996685 C441.56730399 184.72835395 441.56730399 184.72835395 430.20288086 163.37524414 C422.09541576 155.40619918 410.52846058 154.51599112 399.74194336 154.50415039 C398.5603363 154.48761414 397.37872925 154.47107788 396.16131592 154.45404053 C392.43292856 154.4059343 388.70494793 154.38427216 384.97631836 154.36352539 C382.4294233 154.33533457 379.88254689 154.30540285 377.33569336 154.27368164 C371.13264131 154.20018552 364.92970188 154.14832509 358.72631836 154.11352539 Z " fill="#000000" transform="translate(497.273681640625,220.886474609375)"/>
<path d="M0 0 C0 147.84 0 295.68 0 448 C-65.47117647 448 -65.47117647 448 -79.75 434.75 C-90.46136563 423.25549207 -92.45571494 410.91882737 -92.38095093 395.70422363 C-92.38441211 394.1641661 -92.38917976 392.62411106 -92.39513266 391.08406115 C-92.40760904 386.87310563 -92.40148767 382.66235516 -92.39217401 378.45139909 C-92.38537003 373.90190664 -92.39587142 369.35244878 -92.40411377 364.80296326 C-92.41743891 355.89880763 -92.41457879 346.99472796 -92.40587585 338.09056938 C-92.39909492 330.85261467 -92.39818435 323.61468122 -92.4014473 316.37672424 C-92.401907 315.34575663 -92.40236669 314.31478901 -92.40284032 313.25257996 C-92.40379952 311.1580516 -92.40477216 309.06352326 -92.4057581 306.96899492 C-92.41430842 287.33828468 -92.40448346 267.70761651 -92.388357 248.07691318 C-92.37495415 231.24054476 -92.37728234 214.40423839 -92.39111328 197.56787109 C-92.4071754 178.00639496 -92.41348448 158.44495568 -92.40427649 138.88347387 C-92.40332086 136.79674117 -92.40237775 134.71000847 -92.4014473 132.62327576 C-92.40098447 131.59661963 -92.40052164 130.56996349 -92.40004479 129.51219657 C-92.3974568 122.28469776 -92.40182179 115.05722236 -92.40888596 107.82972717 C-92.41730816 99.0193049 -92.41500563 90.20896279 -92.39904372 81.39854968 C-92.39117074 76.90515521 -92.38805283 72.41189431 -92.39799118 67.9185009 C-92.40695873 63.80170913 -92.40197145 59.68517419 -92.38605852 55.56840557 C-92.38271943 54.08267085 -92.38438511 52.59691425 -92.39168589 51.11119372 C-92.45717566 36.67134682 -89.61120132 24.55045133 -79.72265625 13.625 C-58.48882372 -6.40510053 -26.49314403 0 0 0 Z " fill="#000000" transform="translate(192,355)"/>
<path d="M0 0 C0.82242188 0.05542969 1.64484375 0.11085938 2.4921875 0.16796875 C8.60832531 1.66524284 12.78518852 6.22572064 17 10.625 C20.12234363 13.8609599 23.26867816 16.97129441 26.6953125 19.88671875 C33.44605106 25.71909333 39.58585944 32.21947479 45.85253906 38.56054688 C53.27642125 46.15331145 53.27642125 46.15331145 61.1171875 53.3046875 C67.18120553 58.46562157 72.65686146 64.27854139 78.25 69.9375 C80.54128717 72.25558585 82.83601306 74.57018961 85.1328125 76.8828125 C85.64546661 77.40376495 86.15812073 77.92471741 86.68630981 78.4614563 C89.16196537 80.95365691 91.67219401 83.31395377 94.38623047 85.54638672 C98.72310706 89.13480609 100.20113536 92.12544761 101 97.625 C101.33213954 102.59233133 100.93241221 106.61037979 98.125 110.8125 C93.42128297 115.38666551 89.33837683 117.56998099 82.8125 118.0625 C75.71262238 117.58115236 71.92068274 114.775474 67.125 109.8125 C66.09879063 108.79311427 65.07003413 107.77628784 64.0390625 106.76171875 C58.73290515 101.5067205 53.50210722 96.2663356 48.6640625 90.5703125 C46.51965906 88.12112076 44.19638779 85.87368444 41.875 83.59375 C39.41865151 81.09353815 37.16190632 78.43569484 34.875 75.78125 C32.65312924 73.28164539 30.2837623 70.959339 27.8984375 68.6171875 C25.3136316 65.98683436 22.91330219 63.20788237 20.5078125 60.4140625 C19.73929517 59.52397181 18.95652881 58.64402881 18.125 57.8125 C18.12722061 58.73632477 18.12944122 59.66014954 18.13172913 60.61196899 C18.20528305 92.51484865 18.18816303 124.41760567 18.13685429 156.32050145 C18.12995005 160.61778092 18.12335236 164.91506054 18.11730194 169.21234131 C18.08299986 193.54602128 18.03031506 217.87953894 17.93948841 242.21307945 C17.90093647 252.62734716 17.86907329 263.04154048 17.85427856 273.45587158 C17.84140345 282.46189002 17.81465383 291.46773781 17.77048725 300.47365928 C17.74799085 305.14565158 17.7320707 309.81743532 17.73309898 314.48948669 C17.73384153 318.81954248 17.71603376 323.14912186 17.68382823 327.47905421 C17.6753448 329.05395421 17.67357476 330.62890767 17.67919838 332.20382047 C17.73094606 348.90640479 17.73094606 348.90640479 11.71331406 355.31617928 C6.40162758 360.09004128 1.65510254 361.2908953 -5.3125 361.125 C-10.84202854 360.45066725 -15.07481629 358.02163585 -18.75 353.875 C-22.78452073 348.06054365 -23.16279672 343.56388329 -23.11791992 336.67993164 C-23.12073345 335.28877608 -23.12073345 335.28877608 -23.12360382 333.86951637 C-23.12729482 330.73714922 -23.11640593 327.60500418 -23.10546875 324.47265625 C-23.10460754 322.19741329 -23.10453377 319.92216991 -23.10517883 317.64692688 C-23.10400769 311.37602623 -23.08943838 305.1052176 -23.07223511 298.83434296 C-23.06087087 294.21242136 -23.05512559 289.59050568 -23.05004632 284.96857357 C-22.9655226 209.24911162 -22.40016205 133.52992586 -21.875 57.8125 C-23.80105474 59.72499893 -25.72525288 61.63930598 -27.6484375 63.5546875 C-28.19040771 64.09246826 -28.73237793 64.63024902 -29.29077148 65.18432617 C-32.72298474 68.60609924 -35.96084345 72.12805255 -39.1015625 75.8203125 C-42.07071847 79.15570797 -45.29318343 82.23769327 -48.46875 85.375 C-50.52949345 87.46250635 -52.47015626 89.58419223 -54.375 91.8125 C-57.8531139 95.88123701 -61.63829925 99.59641092 -65.453125 103.34765625 C-67.63673359 105.57000628 -69.63747981 107.85354313 -71.625 110.25 C-75.22841011 114.36937183 -78.06651264 116.502625 -83.671875 117.12109375 C-90.30548433 117.39336876 -94.6804781 117.05292604 -99.875 112.8125 C-104.20921302 108.01390701 -105.42761879 103.69968305 -105.34375 97.3046875 C-104.22718648 91.36829145 -100.8245351 87.32656794 -96.61328125 83.22265625 C-96.1037944 82.71504257 -95.59430756 82.20742889 -95.06938171 81.68443298 C-93.99450245 80.6162428 -92.91604785 79.5516395 -91.83422852 78.49047852 C-90.20272137 76.88993251 -88.58193966 75.27915303 -86.96289062 73.66601562 C-82.01993777 68.76065249 -77.0151953 63.97824674 -71.72338867 59.44702148 C-68.27910248 56.40125527 -65.09314998 53.09350447 -61.875 49.8125 C-57.35524688 45.20447045 -52.76567773 40.80232203 -47.875 36.58984375 C-44.38528722 33.48863415 -41.1428338 30.14415868 -37.875 26.8125 C-33.27955079 22.12729592 -28.61243733 17.64016562 -23.63818359 13.35742188 C-21.54537252 11.52367658 -19.60689789 9.57602615 -17.6875 7.5625 C-12.32237649 2.13438091 -7.73149274 -0.63826965 0 0 Z " fill="#000000" transform="translate(641.875,65.1875)"/>
<path d="M0 0 C6.07600973 3.57412337 10.59989963 7.11848792 13.1875 13.875 C13.6825 16.35 13.6825 16.35 14.1875 18.875 C74.5775 19.205 134.9675 19.535 197.1875 19.875 C197.1875 20.865 197.1875 21.855 197.1875 22.875 C106.6025 23.37 106.6025 23.37 14.1875 23.875 C13.1975 26.845 12.2075 29.815 11.1875 32.875 C8.36704056 37.38494256 4.48329614 41.70654828 -0.67578125 43.46875 C-8.80834138 45.01497716 -16.3718351 44.710268 -23.6484375 40.57421875 C-28.17817739 37.01747353 -31.00779018 32.28912945 -32.8125 26.875 C-33.73809599 18.92809731 -32.72767922 12.33817819 -27.8125 5.875 C-19.57673205 -1.22131844 -10.50529879 -3.09992423 0 0 Z " fill="#000000" transform="translate(132.8125,848.125)"/>
</svg>
