<?xml version="1.0" encoding="UTF-8"?>
<svg version="1.1" xmlns="http://www.w3.org/2000/svg" width="1024" height="1024">
<path d="M0 0 C2.13338845 -0.00271959 4.26677596 -0.00628588 6.40016174 -0.01062012 C12.12338524 -0.01963202 17.84653553 -0.01624663 23.56976008 -0.00986195 C29.60474112 -0.00474256 35.63971655 -0.00950975 41.67469788 -0.01263428 C51.80397651 -0.01625709 61.93322583 -0.01151961 72.0625 -0.00195312 C83.71410503 0.00892518 95.36564 0.0054035 107.01724333 -0.00560594 C117.08336191 -0.01473064 127.14945961 -0.01593884 137.215581 -0.0107286 C143.20028584 -0.00763683 149.18495793 -0.00712146 155.16966057 -0.01380157 C160.80139956 -0.01965034 166.43304972 -0.01544301 172.06477928 -0.00401306 C174.11114608 -0.00140607 176.15752057 -0.00206206 178.20388412 -0.00653839 C188.83863549 -0.02762658 199.37393409 0.25839734 209.97413635 1.16168213 C210.90396865 1.24072462 211.83380094 1.31976711 212.79180998 1.40120482 C248.69925568 4.75666566 275.37875053 23.34613164 299.21118164 49.28222656 C305.57185497 56.13098755 312.1151649 62.78633813 318.73461914 69.38378906 C319.21807423 69.86578136 319.70152931 70.34777367 320.19963455 70.8443718 C323.68689498 74.31943721 327.17903206 77.78958202 330.67211914 81.25878906 C334.19864165 84.76144862 337.72333816 88.26591159 341.24386597 91.77459717 C342.62808932 93.15246151 344.01541109 94.52721095 345.40283203 95.90185547 C349.09146411 99.57618647 352.72444644 103.24601916 356.11352539 107.20019531 C360.19674432 111.95364258 364.64098603 116.3402294 369.087677 120.74951172 C370.64685641 122.29571646 372.20270535 123.84520802 373.7578125 125.39550781 C377.0597505 128.68611889 380.3656233 131.97275868 383.67211914 135.25878906 C387.5092339 139.07215411 391.34463589 142.88721055 395.17581177 146.70654297 C396.6952138 148.21954958 398.21763617 149.72946876 399.74023438 151.23925781 C404.27704878 155.75233435 408.65805131 160.32564795 412.82275391 165.18457031 C416.40604291 169.2035305 420.26554086 172.95953004 424.087677 176.74951172 C425.64685641 178.29571646 427.20270535 179.84520802 428.7578125 181.39550781 C432.0597505 184.68611889 435.3656233 187.97275868 438.67211914 191.25878906 C442.5092339 195.07215411 446.34463589 198.88721055 450.17581177 202.70654297 C451.6952138 204.21954958 453.21763617 205.72946876 454.74023438 207.23925781 C459.27704878 211.75233435 463.65805131 216.32564795 467.82275391 221.18457031 C471.40604291 225.2035305 475.26554086 228.95953004 479.087677 232.74951172 C480.64685641 234.29571646 482.20270535 235.84520802 483.7578125 237.39550781 C487.0597505 240.68611889 490.3656233 243.97275868 493.67211914 247.25878906 C497.5092339 251.07215411 501.34463589 254.88721055 505.17581177 258.70654297 C506.6952138 260.21954958 508.21763617 261.72946876 509.74023438 263.23925781 C514.93532646 268.4070775 519.92106304 273.67947433 524.67211914 279.25878906 C526.00367529 280.71874527 527.33663725 282.17742303 528.67211914 283.63378906 C553.48223679 311.64059495 557.83479864 344.40407792 557.81256104 380.50462341 C557.81515084 382.20798228 557.8181657 383.91134055 557.82156444 385.61469799 C557.82956528 390.25891762 557.8314201 394.90312173 557.8321619 399.54734743 C557.8340246 404.57076892 557.84157786 409.59418258 557.84829712 414.61759949 C557.8618311 425.58490604 557.86789727 436.55220892 557.87230778 447.51952243 C557.87507825 454.37796082 557.87931701 461.23639783 557.88381195 468.09483528 C557.89599756 487.11443588 557.90629866 506.13403538 557.90968704 525.15363979 C557.90990661 526.36895323 557.91012617 527.58426667 557.91035239 528.83640778 C557.91057067 530.05448729 557.91078895 531.27256679 557.91101384 532.52755779 C557.91145729 534.99550402 557.91190386 537.46345025 557.91235352 539.93139648 C557.91257495 541.15556084 557.91279638 542.37972519 557.91302451 543.64098544 C557.91697013 563.46387756 557.93442012 583.28673287 557.95771304 603.10961079 C557.9814793 623.50124029 557.99389127 643.89285137 557.99505496 664.28449494 C557.99596869 675.71761684 558.00164471 687.15069075 558.01987457 698.58379936 C558.03534685 708.3211291 558.04035421 718.058396 558.03213647 727.79573571 C558.02825523 732.75455724 558.02903457 737.71325248 558.04319382 742.67205811 C558.14690809 781.28009756 557.15255869 822.26273772 530.67211914 853.25878906 C530.02887695 854.05800781 529.38563477 854.85722656 528.72290039 855.68066406 C509.30220784 878.79882673 478.03419911 888.20004726 448.96804857 891.04099798 C441.52008998 891.53315019 434.04572285 891.40318963 426.58477783 891.39923096 C424.63254575 891.40181732 422.6803142 891.40483123 420.72808337 891.40823436 C415.37740016 891.41627604 410.02673038 891.41809235 404.67604184 891.41883183 C398.89932476 891.42068737 393.12261457 891.42823729 387.34590149 891.43496704 C374.71938706 891.44853155 362.09287582 891.45457237 349.46635532 891.4589777 C341.57541652 891.46174375 333.68447893 891.46598181 325.79354095 891.47048187 C303.92694296 891.48267292 282.06034598 891.49300735 260.19374466 891.49635696 C258.78088631 891.49657859 257.36802796 891.49680038 255.9551696 891.49702232 C254.53900881 891.49724295 253.12284801 891.49746343 251.70668721 891.49768376 C248.8659002 891.4981263 246.02511318 891.49857342 243.18432617 891.49902344 C242.1278091 891.49918752 242.1278091 891.49918752 241.04994824 891.49935493 C218.23217974 891.50298231 195.41444306 891.51889136 172.59668674 891.5422138 C148.43979487 891.56685958 124.28292118 891.58053204 100.12601638 891.58172488 C86.97085689 891.58263965 73.81573909 891.58834175 60.66059113 891.60654449 C49.45483432 891.62199565 38.24913208 891.62703652 27.04336664 891.61880639 C21.33332921 891.61491738 15.62340148 891.61574334 9.91337776 891.62986374 C4.67093059 891.64270842 -0.57132564 891.64131365 -5.81377295 891.62927303 C-7.6954161 891.62733413 -9.57707328 891.63030914 -11.45869681 891.63911739 C-47.07345622 891.79508188 -83.38137419 884.62562654 -109.65209961 858.99316406 C-137.97104319 830.05409763 -141.64906147 789.66439135 -141.58857727 751.16122437 C-141.59049733 748.42407333 -141.5954121 745.6869294 -141.60016984 742.94978201 C-141.60888699 737.0213655 -141.61026003 731.09298355 -141.60666656 725.16456223 C-141.60133681 716.34815381 -141.60747765 707.53177857 -141.6157495 698.71537376 C-141.63095762 682.0490376 -141.63269782 665.38271668 -141.63022647 648.71637504 C-141.62839085 635.84178463 -141.63015906 622.96719919 -141.63445091 610.09260941 C-141.63505332 608.2401893 -141.63565452 606.38776919 -141.63625452 604.53534908 C-141.63716181 601.74360642 -141.63807048 598.95186376 -141.63898687 596.1601211 C-141.64741174 570.21664287 -141.65175534 544.27316652 -141.64758015 518.32968712 C-141.64742377 517.3524702 -141.64726739 516.37525329 -141.64710628 515.36842373 C-141.64630055 510.4159822 -141.64545478 505.46354067 -141.64459298 500.51109914 C-141.64442189 499.52760452 -141.6442508 498.5441099 -141.64407453 497.53081241 C-141.64372787 495.5419488 -141.64337934 493.5530852 -141.64302894 491.56422159 C-141.63767333 460.62662473 -141.64559953 429.68905639 -141.6640625 398.75146484 C-141.68480283 363.95740984 -141.69550129 329.1633725 -141.69148701 294.36931098 C-141.6910917 290.65549509 -141.69073014 286.9416792 -141.69038963 283.22786331 C-141.69025354 281.85630729 -141.69025354 281.85630729 -141.69011469 280.45704306 C-141.68895126 266.68504248 -141.69557767 252.9130598 -141.70620155 239.14106369 C-141.71828021 223.46764791 -141.71978194 207.79427141 -141.70741139 192.12085502 C-141.70080734 183.36285035 -141.7023568 174.60493978 -141.7159999 165.84694274 C-141.72429648 159.98034617 -141.72147993 154.11381946 -141.71002463 148.24722847 C-141.70381917 144.9155685 -141.70373072 141.58423833 -141.71388797 138.25256674 C-141.8232349 99.68231934 -136.53935035 60.89484588 -108.32788086 32.25878906 C-79.54418675 3.42696169 -38.54794279 -0.08422976 0 0 Z M-54.32788086 82.25878906 C-55.21733398 83.00902344 -55.21733398 83.00902344 -56.12475586 83.77441406 C-66.3886148 93.1299669 -71.53367584 106.72695633 -73.32788086 120.25878906 C-73.47454158 123.88423103 -73.4673497 127.50688995 -73.46210194 131.13490868 C-73.46445417 132.23785784 -73.4668064 133.34080701 -73.46922991 134.47717887 C-73.47591571 138.1931596 -73.47546181 141.90910532 -73.47505188 145.62509155 C-73.47835077 148.30823814 -73.48203868 150.99138167 -73.48619336 153.67452681 C-73.49551437 160.28838596 -73.49944057 166.90223841 -73.50171232 173.5161033 C-73.50467572 181.43770809 -73.51337397 189.359304 -73.5221266 197.28090413 C-73.542967 216.42865663 -73.55344039 235.57641066 -73.56225621 254.72417186 C-73.56646352 263.78386948 -73.57168542 272.84356644 -73.57694074 281.9032635 C-73.59483108 312.91994542 -73.60982655 343.93662752 -73.61726093 374.95331383 C-73.61773569 376.90043182 -73.61821158 378.84754982 -73.61868859 380.79466782 C-73.61892497 381.76025673 -73.61916135 382.72584564 -73.61940489 383.72069482 C-73.62060608 388.61278744 -73.62182153 393.50488005 -73.62304688 398.39697266 C-73.62328702 399.36782063 -73.62352717 400.3386686 -73.6237746 401.33893621 C-73.63166605 432.81019925 -73.65509464 464.28142458 -73.68760282 495.75267115 C-73.7219149 529.03108492 -73.74161337 562.30947664 -73.74490517 595.58790839 C-73.74532271 599.24251088 -73.74580227 602.89711337 -73.74632835 606.55171585 C-73.74645155 607.45157219 -73.74657474 608.35142854 -73.74670166 609.27855325 C-73.74903202 623.74886594 -73.76468283 638.21913477 -73.7851702 652.68943184 C-73.8054447 667.24048494 -73.81089782 681.79148547 -73.80139957 696.34255008 C-73.79619087 704.98202686 -73.80203217 713.62132839 -73.82393424 722.26077987 C-73.8374747 728.03981685 -73.83633679 733.81873364 -73.82353228 739.59777191 C-73.81665707 742.8853817 -73.8181308 746.17259251 -73.83309237 749.46018498 C-73.92553101 771.11931797 -72.6428966 791.48072406 -56.80834961 808.00488281 C-49.71031175 814.45459595 -41.5535203 818.7208361 -32.32788086 821.25878906 C-31.72491298 821.42670131 -31.12194511 821.59461357 -30.50070548 821.76761407 C-21.69431612 823.87534787 -12.74851801 823.53979866 -3.75616455 823.51948547 C-1.860102 823.52250842 0.03595933 823.52639861 1.93201852 823.53107804 C7.12714148 823.54134847 12.32219536 823.53917863 17.51732397 823.53489745 C23.12620123 823.53242848 28.73506193 823.54144656 34.34393311 823.54893494 C45.32689219 823.56167952 56.30982682 823.5634759 67.29279205 823.56113467 C76.22168927 823.55935096 85.15057907 823.5611023 94.0794754 823.56535912 C95.35074455 823.5659543 96.6220137 823.56654949 97.93180616 823.56716272 C100.51449059 823.56837448 103.09717501 823.56958862 105.67985943 823.5708051 C123.01914726 823.57859136 140.35843071 823.58251214 157.69771957 823.57848835 C158.37542208 823.57833197 159.05312458 823.5781756 159.75136352 823.57801448 C163.18599645 823.57720874 166.62062938 823.57636296 170.0552623 823.57550118 C171.07840043 823.57524455 171.07840043 823.57524455 172.12220801 823.57498273 C173.50156343 823.57463608 174.88091886 823.57428755 176.26027428 823.57393715 C197.71755914 823.56858132 219.17480289 823.57650765 240.63208008 823.5949707 C264.75686809 823.61570487 288.8816243 823.62637956 313.00642419 823.62239522 C325.77343967 823.62048367 338.54041771 823.6229662 351.30742645 823.63710976 C362.17708278 823.64902966 373.04667862 823.65042161 383.91633579 823.63831959 C389.45930836 823.63243503 395.00217032 823.63131985 400.5451355 823.64332199 C405.62556753 823.6541945 410.70579678 823.65106106 415.78621939 823.63706031 C417.61792048 823.63441715 419.44963753 823.63676786 421.28132293 823.64479617 C441.31027924 823.72644609 459.5136684 820.76743977 474.57055664 806.45410156 C485.25690915 795.20776552 489.80013451 779.62589282 489.79516697 764.40038395 C489.79689774 763.41576534 489.79689774 763.41576534 489.79866347 762.41125545 C489.80130198 760.22043848 489.7968309 758.0296956 489.79237366 755.83888245 C489.79280992 754.24891754 489.79368586 752.65895271 489.79496282 751.06898826 C489.79719687 746.70659015 489.7932014 742.34421663 489.78818476 737.98182166 C489.78386481 733.27501593 489.78532779 728.56821157 489.78608704 723.86140442 C489.78661129 715.7087477 489.78347476 707.55609899 489.7778492 699.40344429 C489.76972088 687.61608531 489.76711761 675.8287302 489.76586121 664.04136872 C489.76367279 644.91698125 489.75701837 625.79259804 489.74755859 606.66821289 C489.73837906 588.09106467 489.73130087 569.51391761 489.72705078 550.93676758 C489.72678806 549.79160034 489.72652533 548.6464331 489.72625465 547.46656383 C489.72494961 541.72157491 489.7236859 535.97658599 489.72244275 530.23159707 C489.71207667 482.57399145 489.69446404 434.91639046 489.67211914 387.25878906 C488.39935655 387.25640071 487.12659395 387.25401236 485.81526279 387.25155163 C455.54167438 387.19408088 425.26816549 387.1212721 394.99466217 387.02980278 C391.26125298 387.01853582 387.52784341 387.00739718 383.79443359 386.99633789 C383.05123918 386.99413421 382.30804476 386.99193052 381.5423293 386.98966006 C369.53901857 386.95437378 357.5357079 386.92946086 345.53236467 386.90844204 C333.19815601 386.88661066 320.86401412 386.85349127 308.52986234 386.8100875 C300.93084133 386.78369654 293.33190338 386.76590899 285.73283886 386.75944302 C279.88692891 386.75352101 274.04115583 386.73182602 268.19531059 386.70451355 C265.81104212 386.6957778 263.42674902 386.69200139 261.04246521 386.6937809 C236.32156766 386.70639678 213.52205126 384.67722253 194.46508789 367.23925781 C181.08313309 353.44791242 176.53244821 333.41124212 176.51390076 314.7805481 C176.50896278 313.72594859 176.5040248 312.67134908 176.49893719 311.58479202 C176.4835818 308.05180953 176.47520683 304.51884519 176.46679688 300.98583984 C176.45721682 298.4529657 176.44720666 295.92009316 176.4367981 293.38722229 C176.41535891 287.93450582 176.39691197 282.48179228 176.38119316 277.02905655 C176.35846134 269.14536006 176.33032315 261.26169013 176.30087388 253.37801622 C176.25323853 240.58665797 176.20996338 227.79528884 176.16943359 215.00390625 C176.13005801 202.579744 176.08862685 190.1555914 176.04443359 177.73144531 C176.04170932 176.96536379 176.03898505 176.19928227 176.03617822 175.40998615 C176.0224984 171.56670353 176.0087782 167.72342105 175.99503791 163.88013864 C175.88113688 132.00637534 175.77438616 100.13259187 175.67211914 68.25878906 C150.65401304 68.18855632 125.63592182 68.13573117 100.61773682 68.10335255 C89.00008845 68.08791574 77.38250151 68.06688741 65.76489258 68.0324707 C55.6332374 68.0024705 45.50162673 67.98319093 35.36992836 67.97652358 C30.01049917 67.97262926 24.65119728 67.96354411 19.29180908 67.94159889 C14.2357332 67.9210656 9.1798357 67.91498892 4.12372208 67.91946602 C2.27921704 67.91864829 0.43470533 67.91278386 -1.40976334 67.90117264 C-20.22412509 67.78865571 -39.53968165 69.27089237 -54.32788086 82.25878906 Z M238.67211914 82.25878906 C238.62539046 111.17893388 238.59012602 140.09907304 238.5684948 169.01924801 C238.56645512 171.69292644 238.56437248 174.36660483 238.56225586 177.0402832 C238.56173124 177.7048295 238.56120662 178.3693758 238.5606661 179.05405987 C238.55197069 189.80505793 238.53620549 200.55603454 238.51781355 211.30701988 C238.49909043 222.34389338 238.48814695 233.38075505 238.48394215 244.41764361 C238.48133575 250.61462639 238.47521339 256.81156056 238.46065903 263.00852776 C238.44706619 268.84346926 238.44289998 274.6783422 238.44590378 280.51329803 C238.44535438 282.65261012 238.44138712 284.79192454 238.43370819 286.93122292 C238.42372038 289.85775087 238.4261643 292.78402181 238.43161011 295.71055603 C238.42578442 296.55202193 238.41995874 297.39348782 238.41395652 298.26045269 C238.45534287 306.52002593 239.2447691 313.76185653 245.10180664 319.88769531 C251.11577537 325.13869786 260.20253573 324.40573291 267.75205994 324.37904358 C268.64417177 324.379898 269.53628361 324.38075243 270.45542914 324.38163275 C273.43254637 324.38327451 276.40960674 324.37778756 279.38671875 324.37231445 C281.5256551 324.37203227 283.66459154 324.37219092 285.80352783 324.37275696 C291.60252365 324.37304373 297.40149875 324.36716631 303.20048976 324.360183 C309.26366874 324.35392957 315.3268482 324.35334409 321.39002991 324.35215759 C332.86811636 324.34905015 344.34619329 324.34084466 355.82427555 324.3308081 C368.89311179 324.31962875 381.96194848 324.31413192 395.0307883 324.30911267 C421.9112372 324.29866157 448.79167764 324.28107348 475.67211914 324.25878906 C472.19059471 319.44970083 468.64751925 314.98683916 464.42041016 310.79589844 C463.93334595 310.31014847 463.44628174 309.8243985 462.94445801 309.32392883 C461.35956626 307.74544094 459.76780656 306.17407631 458.17602539 304.60253906 C457.05742257 303.49022313 455.93934431 302.37737944 454.82176208 301.26403809 C451.89426051 298.34975554 448.96123012 295.44110902 446.02648926 292.53411865 C441.33332509 287.88427649 436.64694473 283.22762379 431.96391106 278.56758118 C430.34072101 276.95448777 428.71409496 275.34492296 427.08705139 273.73571777 C422.37100812 269.0578514 417.79025169 264.33421294 413.47032166 259.28308105 C410.02564237 255.40529942 406.30954659 251.78864122 402.62695312 248.13845825 C401.13497671 246.65946997 399.64634361 245.17718405 398.15844727 243.6940918 C394.99917149 240.54613657 391.83595892 237.40215637 388.67211914 234.25878906 C385.00021125 230.61064124 381.33002357 226.96079562 377.6640625 223.30667114 C376.21114006 221.86013838 374.75519633 220.41669739 373.29907227 218.97338867 C368.8553942 214.54605938 364.58004657 210.06764824 360.49658203 205.30810547 C356.65485902 200.99291439 352.49299908 196.980417 348.39086914 192.91503906 C347.40843536 191.93702487 346.42630426 190.95870655 345.44445801 189.98010254 C342.35651343 186.90347511 339.264631 183.8308247 336.17211914 180.75878906 C332.58281451 177.19325003 328.99523406 173.62600978 325.41188049 170.05448914 C323.99220757 168.64120277 322.56944915 167.23101796 321.14660645 165.82092285 C316.7561876 161.44702525 312.53975682 157.0170185 308.50427246 152.3157959 C304.65910189 147.99872152 300.49564044 143.98303469 296.39086914 139.91503906 C295.40843536 138.93702487 294.42630426 137.95870655 293.44445801 136.98010254 C290.35651343 133.90347511 287.264631 130.8308247 284.17211914 127.75878906 C280.58281451 124.19325003 276.99523406 120.62600978 273.41188049 117.05448914 C271.99220757 115.64120277 270.56944915 114.23101796 269.14660645 112.82092285 C264.63093463 108.3222436 260.26531684 103.76895336 256.11480713 98.93078613 C254.39815801 96.94128299 252.59848881 95.05592245 250.74243164 93.19628906 C250.09274414 92.5453125 249.44305664 91.89433594 248.77368164 91.22363281 C248.12141602 90.57523438 247.46915039 89.92683594 246.79711914 89.25878906 C246.12165039 88.57945312 245.44618164 87.90011719 244.75024414 87.20019531 C243.78731445 86.23919922 243.78731445 86.23919922 242.80493164 85.25878906 C241.93698975 84.39253906 241.93698975 84.39253906 241.05151367 83.50878906 C239.85887002 82.14687291 239.85887002 82.14687291 238.67211914 82.25878906 Z " fill="#000000" transform="translate(334.327880859375,63.7412109375)"/>
<path d="M0 0 C2.50487516 2.21527248 4.93378041 4.49119595 7.3515625 6.80078125 C7.96644531 7.34089844 8.58132813 7.88101563 9.21484375 8.4375 C20.6860525 18.90662615 27.66382773 34.67057615 32.1015625 49.23828125 C32.30040039 49.88128174 32.49923828 50.52428223 32.70410156 51.18676758 C35.89219339 62.30270868 36.65190886 73.69314315 36.546875 85.19921875 C36.5440451 86.40019196 36.54121521 87.60116516 36.53829956 88.83853149 C36.52723929 92.6177227 36.50216235 96.39666351 36.4765625 100.17578125 C36.46651437 102.76171529 36.45739176 105.3476531 36.44921875 107.93359375 C36.42734659 114.22273951 36.39401373 120.51174248 36.3515625 126.80078125 C36.96852997 126.86240952 37.58549744 126.92403778 38.22116089 126.98753357 C39.43595627 127.11443321 39.43595627 127.11443321 40.67529297 127.24389648 C41.47788544 127.32614975 42.28047791 127.40840302 43.10739136 127.4931488 C50.37547066 128.48946186 56.39916756 132.87820081 60.8828125 138.50390625 C68.07087621 149.74481439 67.50144867 162.80006174 67.49682617 175.65722656 C67.49982493 177.02513215 67.50322909 178.39303689 67.50700378 179.76094055 C67.51577532 183.44919189 67.518179 187.13741997 67.51881957 190.82568073 C67.519534 193.13781534 67.52167572 195.44994417 67.52431679 197.76207733 C67.53354774 205.850666 67.53765452 213.93923827 67.53686523 222.02783203 C67.53626514 229.53156404 67.54680946 237.03522401 67.5626089 244.53893781 C67.5757447 251.01149493 67.58104661 257.48402867 67.58040982 263.956599 C67.5801566 267.8089545 67.58290984 271.66124589 67.59358788 275.51358795 C67.60337119 279.14163308 67.60327912 282.76955412 67.59607124 286.39760399 C67.59455109 288.33905525 67.60280011 290.28050678 67.61151123 292.22193909 C67.56567285 305.23954317 67.33394301 318.86933931 58.33984375 329.0859375 C46.57022505 340.40366858 31.18203661 338.9512272 15.9050293 338.94604492 C14.13994272 338.94904069 12.3748568 338.95244418 10.60977173 338.95622253 C5.83485432 338.96502376 1.05995486 338.967399 -3.71496987 338.96803832 C-6.70331968 338.96875098 -9.69166498 338.97088937 -12.68001366 338.97353554 C-23.11993065 338.98277584 -33.55983491 338.98687204 -43.99975586 338.98608398 C-53.70805243 338.98548341 -63.4162934 338.99603457 -73.12457591 339.01182765 C-81.47986781 339.02493199 -89.8351416 339.03026667 -98.19044369 339.02962857 C-103.17174977 339.02937446 -108.15300637 339.03217795 -113.13430214 339.04280663 C-117.8219405 339.05253655 -122.50948259 339.05253344 -127.19712448 339.04528999 C-128.9094666 339.04425024 -130.62181486 339.04657047 -132.3341465 339.05265045 C-160.95218174 339.14761801 -160.95218174 339.14761801 -171.4609375 330.26953125 C-178.34969727 322.9674459 -180.76298177 313.17586301 -180.78887939 303.38912964 C-180.79458954 302.0939592 -180.80029968 300.79878876 -180.80618286 299.46437073 C-180.80742809 298.03598032 -180.80855321 296.60758981 -180.80957031 295.17919922 C-180.81420165 293.669234 -180.81922674 292.15926995 -180.82461548 290.64930725 C-180.83771347 286.55188842 -180.84417968 282.45448595 -180.84862614 278.35704947 C-180.85156185 275.79353333 -180.85566766 273.23002162 -180.86013031 270.66650772 C-180.87380013 262.63557134 -180.88346857 254.60464513 -180.8873322 246.57369792 C-180.8918079 237.32275076 -180.90933523 228.07195172 -180.9383328 218.82104957 C-180.9600007 211.65820037 -180.97003925 204.49539267 -180.97137332 197.33251107 C-180.97241795 193.06040057 -180.97825227 188.78842941 -180.99619293 184.51635361 C-181.0127616 180.49273639 -181.01478683 176.46936191 -181.00605392 172.44572258 C-181.00528816 170.97645476 -181.00956491 169.50717342 -181.01951218 168.03793907 C-181.09761159 155.77407888 -180.15182336 144.30239067 -171.6484375 134.80078125 C-165.32116957 129.34058337 -159.04603919 126.80078125 -150.6484375 126.80078125 C-150.65509933 126.16645676 -150.66176117 125.53213226 -150.66862488 124.87858582 C-150.73585521 118.1768408 -150.78059493 111.47519402 -150.81323242 104.77319336 C-150.82816532 102.28389586 -150.84851897 99.79462394 -150.87475586 97.30541992 C-151.05774413 79.47662189 -151.07511518 61.55884529 -144.9609375 44.55078125 C-144.70675049 43.82173584 -144.45256348 43.09269043 -144.19067383 42.34155273 C-139.72622008 30.03858187 -133.50857937 19.48018282 -124.6484375 9.80078125 C-123.91625 8.99898437 -123.1840625 8.1971875 -122.4296875 7.37109375 C-110.88335893 -4.70376394 -96.75970908 -12.08233363 -80.6484375 -16.19921875 C-79.76414062 -16.42609375 -78.87984375 -16.65296875 -77.96875 -16.88671875 C-51.63260008 -22.38295873 -20.95839407 -17.40350422 0 0 Z M-97.17578125 33.1015625 C-120.59250227 58.66389145 -114.6484375 94.81806291 -114.6484375 126.80078125 C-76.6984375 126.80078125 -38.7484375 126.80078125 0.3515625 126.80078125 C3.19267191 74.83003229 3.19267191 74.83003229 -18.953125 31.3125 C-41.09409141 10.67968638 -75.89514862 12.61703987 -97.17578125 33.1015625 Z " fill="#000000" transform="translate(599.6484375,504.19921875)"/>
</svg>
