<?xml version="1.0" encoding="UTF-8"?>
<svg version="1.1" xmlns="http://www.w3.org/2000/svg" width="1024" height="1024">
<path d="M0 0 C1.21792236 0.33862061 1.21792236 0.33862061 2.46044922 0.68408203 C25.04196071 7.18806055 42.90530773 17.89546026 60 34 C60.66386719 34.59941406 61.32773437 35.19882813 62.01171875 35.81640625 C86.05091752 58.39277346 97.85632275 91.83623019 99.125 124.1875 C99.72255566 157.05306132 89.03631084 187.78904143 68 213 C67.22011719 213.94488281 66.44023438 214.88976562 65.63671875 215.86328125 C43.79274939 241.13936363 10.99092457 256.22079806 -22 259 C-59.87126872 261.10395937 -91.71712787 248.69428392 -119.9375 223.9375 C-125.16982162 219.02536523 -129.67047675 213.7149707 -134 208 C-134.4007373 207.47422363 -134.80147461 206.94844727 -135.21435547 206.40673828 C-153 182.89857478 -153 182.89857478 -153 176 C-158.68237125 180.83037763 -164.00875532 185.90878681 -169.2265625 191.234375 C-170.76794115 192.79325359 -172.30961655 194.3518388 -173.8515625 195.91015625 C-176.24877167 198.33840204 -178.64354955 200.76890685 -181.03320312 203.20458984 C-183.36172348 205.5754729 -185.699619 207.93677631 -188.0390625 210.296875 C-189.10333969 211.38908356 -189.10333969 211.38908356 -190.18911743 212.50335693 C-195.6718457 218.01416566 -200.26914334 221.41518578 -208.3125 221.5625 C-220.76210506 221.15500728 -228.17563328 211.29623655 -236.2956543 202.83496094 C-238.0030932 200.99666975 -239.64343911 199.11471206 -241.27734375 197.2109375 C-245.74292603 192.05632983 -250.59486627 187.29731031 -255.4375 182.5 C-256.35982422 181.5821875 -257.28214844 180.664375 -258.23242188 179.71875 C-260.48599899 177.47684945 -262.74189075 175.237334 -265 173 C-269.61663711 176.84028947 -273.93141054 180.83871733 -278.08984375 185.16796875 C-279.21488899 186.32025325 -280.34055892 187.4719281 -281.46679688 188.62304688 C-283.20832281 190.40782222 -284.94565013 192.19598958 -286.67260742 193.99487305 C-288.36255113 195.75183052 -290.06834138 197.49206971 -291.77734375 199.23046875 C-292.28281235 199.76488083 -292.78828094 200.29929291 -293.30906677 200.84989929 C-297.98240318 205.55711383 -302.91766802 207.66975015 -309.5 208.375 C-317.55652162 207.51180126 -322.33592459 204.40612819 -327.82739258 198.7878418 C-328.77288971 197.85066818 -328.77288971 197.85066818 -329.73748779 196.89456177 C-331.80228707 194.84150137 -333.84857995 192.77104892 -335.89453125 190.69921875 C-337.33234968 189.25968783 -338.77105937 187.82104662 -340.21061707 186.383255 C-343.21821505 183.3740071 -346.21713031 180.35645054 -349.2097168 177.33227539 C-353.04053281 173.46174808 -356.88879644 169.609157 -360.74326038 165.76219463 C-363.71310327 162.79542491 -366.67528698 159.82110528 -369.63504601 156.84427834 C-371.05126945 155.42103885 -372.46943701 153.99973109 -373.88959694 152.58041954 C-375.87381892 150.59439453 -377.84793971 148.59884784 -379.81958008 146.6003418 C-380.4040239 146.01882858 -380.98846771 145.43731537 -381.59062195 144.83818054 C-386.02493319 140.31057899 -389.42655997 135.78433723 -389.4375 129.1875 C-389.04214198 119.37676403 -384.20953841 113.72057749 -377.62890625 106.8046875 C-375.19249576 104.20536695 -372.96384292 101.53902827 -370.75 98.75 C-366.92530284 94.04058642 -362.95650327 89.48685066 -358.875 85 C-358.30104492 84.35256836 -357.72708984 83.70513672 -357.13574219 83.03808594 C-352.1226841 77.60033833 -347.37767481 75.16983469 -340 74 C-337.41172897 73.89893768 -334.84970709 73.84531266 -332.26152039 73.84178162 C-331.48954042 73.83684364 -330.71756045 73.83190566 -329.92218715 73.82681805 C-327.33964707 73.81147991 -324.75713177 73.80309243 -322.17456055 73.79467773 C-320.32162763 73.78509631 -318.46869689 73.77508608 -316.61576843 73.76467896 C-311.58731318 73.73765244 -306.55884856 73.71663066 -301.53036094 73.69667697 C-296.27460256 73.67480354 -291.01887297 73.64742148 -285.76313782 73.62062073 C-275.81143328 73.57071222 -265.85971274 73.52576654 -255.90797693 73.48259836 C-244.5779487 73.43321027 -233.24794936 73.37829796 -221.91794908 73.32291877 C-198.61199301 73.20912699 -175.30600922 73.10228182 -152 73 C-151.52351013 72.03587189 -151.04702026 71.07174377 -150.55609131 70.07839966 C-149.92258869 68.80237789 -149.28897698 67.52641028 -148.65527344 66.25048828 C-148.3422226 65.61633499 -148.02917175 64.9821817 -147.70663452 64.32881165 C-132.99465753 34.75684743 -104.65990574 13.30329646 -73.84106445 2.75195312 C-70.58943843 1.71505065 -67.30899067 0.8330851 -64 0 C-62.15921875 -0.47759766 -62.15921875 -0.47759766 -60.28125 -0.96484375 C-41.20418925 -5.10456593 -18.87705199 -5.25895139 0 0 Z M-96 52 C-96.81210937 52.66644531 -97.62421875 53.33289063 -98.4609375 54.01953125 C-114.27845271 67.52525577 -124.16018485 85.95486845 -129 106 C-130.02261806 105.98671787 -131.04523613 105.97343575 -132.09884262 105.95975113 C-157.05772798 105.64021281 -182.01552158 105.4374342 -206.97634506 105.35490799 C-219.04788846 105.31233331 -231.11700691 105.23274842 -243.1875 105.06396484 C-253.71658376 104.9168312 -264.24342385 104.84124662 -274.77357316 104.84919715 C-280.34311693 104.8509659 -285.90742832 104.81853964 -291.47582245 104.70020294 C-318.26977164 103.02197118 -318.26977164 103.02197118 -341.27429581 114.30695724 C-344.9435205 118.28452934 -348.17240621 122.38487556 -351 127 C-349.61559292 129.87702372 -348.29567684 131.95257101 -346.0234375 134.20703125 C-345.43433594 134.79419922 -344.84523438 135.38136719 -344.23828125 135.98632812 C-343.62339844 136.58896484 -343.00851562 137.19160156 -342.375 137.8125 C-341.78332031 138.40353516 -341.19164062 138.99457031 -340.58203125 139.60351562 C-337.51035139 142.64534114 -334.37798159 145.57025681 -331.1015625 148.390625 C-326.51539248 152.35777886 -322.2619211 156.62756766 -318 160.9375 C-316.83791016 162.10635742 -316.83791016 162.10635742 -315.65234375 163.29882812 C-313.76589243 165.1969242 -311.88183755 167.09733149 -310 169 C-305.97584745 167.45659898 -304.12945364 164.90770337 -301.51953125 161.5546875 C-293.22911495 151.42622163 -284.09001718 141.35257528 -270.54150391 139.28564453 C-259.98295352 138.3091701 -252.00840275 140.35891784 -243.61669922 147.03125 C-230.97210036 157.88102041 -219.80179294 170.34809475 -209 183 C-204.67034887 179.53909297 -200.97153253 175.96166955 -197.52760315 171.61978149 C-177.40202172 146.29396792 -177.40202172 146.29396792 -162.70214844 144.02146912 C-151.80173082 142.95789043 -140.84726649 143.6733326 -130 145 C-129.8673172 145.61261688 -129.7346344 146.22523376 -129.59793091 146.85641479 C-129.42139984 147.66289459 -129.24486877 148.46937439 -129.06298828 149.30029297 C-128.88905548 150.09853485 -128.71512268 150.89677673 -128.53591919 151.71920776 C-124.95547399 166.95704916 -116.5034442 181.56291631 -106 193 C-105.56204102 193.4856543 -105.12408203 193.97130859 -104.67285156 194.47167969 C-88.39745515 212.35508986 -66.1913173 224.50271614 -41.84179688 226.22314453 C-13.65426729 227.51879611 10.72455071 221.53922718 32.25 202.5 C33.83957174 201.00661254 35.42330549 199.50697673 37 198 C37.67546875 197.39929688 38.3509375 196.79859375 39.046875 196.1796875 C54.67897109 181.73563071 65.10002234 158.5423688 66.12426758 137.43969727 C66.95009198 107.63587369 59.91444546 81.634499 39.36279297 59.43701172 C22.41598642 41.56726909 -1.63932256 29.64428876 -26.4609375 28.796875 C-52.71338202 28.37517042 -75.60892847 34.81529838 -96 52 Z " fill="#000000" transform="translate(643,126)"/>
<path d="M0 0 C0.84304688 0.72058594 1.68609375 1.44117188 2.5546875 2.18359375 C7.50764599 6.46114881 11.79525542 10.99677867 16 16 C16.83402344 16.93457031 17.66804688 17.86914062 18.52734375 18.83203125 C37.91462286 40.71989342 54.37549428 71.38228177 53.28125 101.3828125 C52.32202223 110.30895979 50.25347802 117.42128198 44 124 C43.48566406 124.54269531 42.97132813 125.08539062 42.44140625 125.64453125 C28.19205945 139.14211395 5.89691268 139.15713287 -12.50869751 139.13371277 C-13.84251131 139.13558499 -15.17632456 139.13788732 -16.51013696 139.14057809 C-20.14657996 139.14665176 -23.78299981 139.14656777 -27.41944671 139.14538372 C-31.35281583 139.14517858 -35.28617775 139.15070924 -39.21954346 139.15544128 C-46.91536175 139.16372423 -54.61117237 139.16649506 -62.30699475 139.16705366 C-68.56755261 139.16752998 -74.82810795 139.1695905 -81.08866501 139.17275429 C-98.86691959 139.18155474 -116.64516814 139.18617466 -134.42342491 139.18542381 C-135.38052575 139.18538386 -136.33762658 139.1853439 -137.32373047 139.18530273 C-138.76114956 139.18524141 -138.76114956 139.18524141 -140.22760741 139.18517885 C-155.74803047 139.18477264 -171.26842923 139.19433745 -186.78884526 139.2084411 C-202.7529625 139.22283263 -218.71706791 139.22970975 -234.6811918 139.22884732 C-243.63258095 139.22851629 -252.58394464 139.23122199 -261.53532791 139.24202538 C-269.1582746 139.25116703 -276.78118429 139.25327573 -284.40413411 139.24651595 C-288.28675339 139.24326904 -292.16930184 139.24312718 -296.05191422 139.2518692 C-349.55727577 139.36455351 -349.55727577 139.36455351 -365.2890625 124.89453125 C-373.1733143 116.56589435 -375.35294825 107.61781761 -375.21484375 96.30859375 C-373.26259658 66.24398734 -358.34209855 38.55995516 -338.40771484 16.55908203 C-337.09490936 15.10511467 -335.80620526 13.62948603 -334.51953125 12.15234375 C-329.99087945 6.98453628 -325.27546554 2.39151944 -320 -2 C-319.16339844 -2.73605469 -318.32679688 -3.47210937 -317.46484375 -4.23046875 C-241.40574236 -70.03676142 -120.28465351 -75.45681202 0 0 Z M-309.6875 40.8125 C-317.36114278 49.63859462 -323.48609771 59.3900538 -328.5 69.9375 C-328.82621338 70.62271729 -329.15242676 71.30793457 -329.48852539 72.01391602 C-332.4811052 78.57944027 -334.28057448 85.03229237 -334.375 92.3125 C-334.40335938 93.31925781 -334.43171875 94.32601562 -334.4609375 95.36328125 C-334.25089743 98.07146773 -334.25089743 98.07146773 -332.33117199 99.64119971 C-329.42941859 101.33258215 -327.59058473 101.37592845 -324.24031067 101.37752342 C-323.05742557 101.38534666 -321.87454046 101.39316991 -320.65581036 101.40123022 C-319.35504968 101.39453805 -318.054289 101.38784589 -316.71411133 101.38095093 C-315.31932362 101.38440671 -313.92453865 101.38917075 -312.52975941 101.39513266 C-308.69271325 101.40768332 -304.85589025 101.40145392 -301.01884317 101.39217401 C-296.88245011 101.38540044 -292.74609606 101.39585632 -288.60971069 101.40411377 C-280.50484878 101.41747142 -272.40007009 101.41456434 -264.29520488 101.40587585 C-257.70970522 101.39910769 -251.12422894 101.39817881 -244.53872681 101.4014473 C-243.60235156 101.401907 -242.66597631 101.40236669 -241.70122606 101.40284032 C-239.79914911 101.40379948 -237.89707217 101.40477211 -235.99499524 101.4057581 C-218.14854844 101.41431794 -200.30214784 101.40446854 -182.45570862 101.388357 C-167.13418626 101.37495328 -151.81273207 101.3772812 -136.49121094 101.39111328 C-118.70973303 101.4071586 -100.92829562 101.41349391 -83.14681149 101.40427649 C-81.25163206 101.40332082 -79.35645263 101.40237771 -77.46127319 101.4014473 C-76.52874672 101.40098447 -75.59622025 101.40052164 -74.6354354 101.40004479 C-68.05590743 101.39745175 -61.4764051 101.40183265 -54.8968811 101.40888596 C-46.88140907 101.41728952 -38.86602519 101.41504496 -30.85056329 101.39904372 C-26.75895219 101.39114555 -22.66748823 101.38809561 -18.57587814 101.39799118 C-14.83293642 101.40690676 -11.0902787 101.40205743 -7.34736288 101.38605852 C-5.34630488 101.38110062 -3.3452273 101.39093526 -1.34418964 101.40123022 C-0.16130454 101.39340697 1.02158056 101.38558373 2.24031067 101.37752342 C3.26338727 101.37703637 4.28646387 101.37654931 5.34054279 101.37604749 C8.41335196 100.941552 9.79141728 100.15181246 12 98 C15.16003257 83.36161384 6.32262549 68.08188391 -1 56 C-26.16741788 17.91360562 -68.90949423 -6.35117351 -112.875 -15.75 C-183.89589122 -30.0242427 -259.19185852 -12.70045574 -309.6875 40.8125 Z " fill="#000000" transform="translate(929,723)"/>
<path d="M0 0 C0.84304688 0.72058594 1.68609375 1.44117188 2.5546875 2.18359375 C7.50764599 6.46114881 11.79525542 10.99677867 16 16 C16.83402344 16.93457031 17.66804688 17.86914062 18.52734375 18.83203125 C37.91462286 40.71989342 54.37549428 71.38228177 53.28125 101.3828125 C52.32202223 110.30895979 50.25347802 117.42128198 44 124 C43.48566406 124.54269531 42.97132813 125.08539062 42.44140625 125.64453125 C28.19205945 139.14211395 5.89691268 139.15713287 -12.50869751 139.13371277 C-13.84251131 139.13558499 -15.17632456 139.13788732 -16.51013696 139.14057809 C-20.14657996 139.14665176 -23.78299981 139.14656777 -27.41944671 139.14538372 C-31.35281583 139.14517858 -35.28617775 139.15070924 -39.21954346 139.15544128 C-46.91536175 139.16372423 -54.61117237 139.16649506 -62.30699475 139.16705366 C-68.56755261 139.16752998 -74.82810795 139.1695905 -81.08866501 139.17275429 C-98.86691959 139.18155474 -116.64516814 139.18617466 -134.42342491 139.18542381 C-135.38052575 139.18538386 -136.33762658 139.1853439 -137.32373047 139.18530273 C-138.76114956 139.18524141 -138.76114956 139.18524141 -140.22760741 139.18517885 C-155.74803047 139.18477264 -171.26842923 139.19433745 -186.78884526 139.2084411 C-202.7529625 139.22283263 -218.71706791 139.22970975 -234.6811918 139.22884732 C-243.63258095 139.22851629 -252.58394464 139.23122199 -261.53532791 139.24202538 C-269.1582746 139.25116703 -276.78118429 139.25327573 -284.40413411 139.24651595 C-288.28675339 139.24326904 -292.16930184 139.24312718 -296.05191422 139.2518692 C-349.55727577 139.36455351 -349.55727577 139.36455351 -365.2890625 124.89453125 C-373.1733143 116.56589435 -375.35294825 107.61781761 -375.21484375 96.30859375 C-373.26259658 66.24398734 -358.34209855 38.55995516 -338.40771484 16.55908203 C-337.09490936 15.10511467 -335.80620526 13.62948603 -334.51953125 12.15234375 C-329.99087945 6.98453628 -325.27546554 2.39151944 -320 -2 C-319.16339844 -2.73605469 -318.32679688 -3.47210937 -317.46484375 -4.23046875 C-241.40574236 -70.03676142 -120.28465351 -75.45681202 0 0 Z M-309.6875 40.8125 C-317.36114278 49.63859462 -323.48609771 59.3900538 -328.5 69.9375 C-328.82621338 70.62271729 -329.15242676 71.30793457 -329.48852539 72.01391602 C-332.4811052 78.57944027 -334.28057448 85.03229237 -334.375 92.3125 C-334.40335938 93.31925781 -334.43171875 94.32601562 -334.4609375 95.36328125 C-334.25089743 98.07146773 -334.25089743 98.07146773 -332.33117199 99.64119971 C-329.42941859 101.33258215 -327.59058473 101.37592845 -324.24031067 101.37752342 C-323.05742557 101.38534666 -321.87454046 101.39316991 -320.65581036 101.40123022 C-319.35504968 101.39453805 -318.054289 101.38784589 -316.71411133 101.38095093 C-315.31932362 101.38440671 -313.92453865 101.38917075 -312.52975941 101.39513266 C-308.69271325 101.40768332 -304.85589025 101.40145392 -301.01884317 101.39217401 C-296.88245011 101.38540044 -292.74609606 101.39585632 -288.60971069 101.40411377 C-280.50484878 101.41747142 -272.40007009 101.41456434 -264.29520488 101.40587585 C-257.70970522 101.39910769 -251.12422894 101.39817881 -244.53872681 101.4014473 C-243.60235156 101.401907 -242.66597631 101.40236669 -241.70122606 101.40284032 C-239.79914911 101.40379948 -237.89707217 101.40477211 -235.99499524 101.4057581 C-218.14854844 101.41431794 -200.30214784 101.40446854 -182.45570862 101.388357 C-167.13418626 101.37495328 -151.81273207 101.3772812 -136.49121094 101.39111328 C-118.70973303 101.4071586 -100.92829562 101.41349391 -83.14681149 101.40427649 C-81.25163206 101.40332082 -79.35645263 101.40237771 -77.46127319 101.4014473 C-76.52874672 101.40098447 -75.59622025 101.40052164 -74.6354354 101.40004479 C-68.05590743 101.39745175 -61.4764051 101.40183265 -54.8968811 101.40888596 C-46.88140907 101.41728952 -38.86602519 101.41504496 -30.85056329 101.39904372 C-26.75895219 101.39114555 -22.66748823 101.38809561 -18.57587814 101.39799118 C-14.83293642 101.40690676 -11.0902787 101.40205743 -7.34736288 101.38605852 C-5.34630488 101.38110062 -3.3452273 101.39093526 -1.34418964 101.40123022 C-0.16130454 101.39340697 1.02158056 101.38558373 2.24031067 101.37752342 C3.26338727 101.37703637 4.28646387 101.37654931 5.34054279 101.37604749 C8.41335196 100.941552 9.79141728 100.15181246 12 98 C15.16003257 83.36161384 6.32262549 68.08188391 -1 56 C-26.16741788 17.91360562 -68.90949423 -6.35117351 -112.875 -15.75 C-183.89589122 -30.0242427 -259.19185852 -12.70045574 -309.6875 40.8125 Z " fill="#000000" transform="translate(417,723)"/>
<path d="M0 0 C0.63502441 0.20898926 1.27004883 0.41797852 1.92431641 0.63330078 C29.31105285 9.84037536 50.47974555 30.80812044 63.26831055 56.27758789 C67.31194341 64.64186658 70.07217657 72.88849769 72 82 C72.33644531 83.45792969 72.33644531 83.45792969 72.6796875 84.9453125 C78.66337656 115.68344124 71.85120138 148.60929152 54.87792969 174.7265625 C52.43356824 178.30557448 49.76655158 181.66691909 47 185 C46.26523437 185.91007813 45.53046875 186.82015625 44.7734375 187.7578125 C27.92347823 207.53819947 2.95966686 220.89041082 -23 223 C-50.79965286 224.6517283 -75.25063358 216.64514714 -97 199 C-98.28003906 197.96939453 -98.28003906 197.96939453 -99.5859375 196.91796875 C-121.93882885 177.91448541 -134.89443014 149.12284952 -137.82348633 120.26806641 C-140.43632665 86.69505585 -130.81887695 55.98686439 -109.10546875 30.38671875 C-82.33374879 0.03881356 -38.85581497 -13.14301012 0 0 Z M-71 48 C-71.84820313 48.64839844 -72.69640625 49.29679687 -73.5703125 49.96484375 C-88.07484949 62.11414242 -95.51298674 81.01235147 -97.4375 99.375 C-99.62458666 124.94089194 -91.57664723 146.27258104 -75.35546875 166 C-65.38075402 176.9090551 -50.46020388 184.27853438 -35.7734375 185.203125 C-18.65198885 185.43928291 -3.55252556 180.17543292 8.87402344 168.2487793 C23.41626356 153.72863238 33.18153308 134.85311369 34 114 C34.03996094 113.01773438 34.07992187 112.03546875 34.12109375 111.0234375 C34.55960745 89.40729159 28.37469236 69.16620241 13.30859375 53.3125 C12.54675781 52.549375 11.78492188 51.78625 11 51 C10.28972656 50.278125 9.57945312 49.55625 8.84765625 48.8125 C-13.73597389 27.24982963 -47.67127862 29.19495696 -71 48 Z " fill="#000000" transform="translate(800,413)"/>
<path d="M0 0 C0.63502441 0.20898926 1.27004883 0.41797852 1.92431641 0.63330078 C29.31105285 9.84037536 50.47974555 30.80812044 63.26831055 56.27758789 C67.31194341 64.64186658 70.07217657 72.88849769 72 82 C72.33644531 83.45792969 72.33644531 83.45792969 72.6796875 84.9453125 C78.66337656 115.68344124 71.85120138 148.60929152 54.87792969 174.7265625 C52.43356824 178.30557448 49.76655158 181.66691909 47 185 C46.26523437 185.91007813 45.53046875 186.82015625 44.7734375 187.7578125 C27.92347823 207.53819947 2.95966686 220.89041082 -23 223 C-50.79965286 224.6517283 -75.25063358 216.64514714 -97 199 C-98.28003906 197.96939453 -98.28003906 197.96939453 -99.5859375 196.91796875 C-121.93882885 177.91448541 -134.89443014 149.12284952 -137.82348633 120.26806641 C-140.43632665 86.69505585 -130.81887695 55.98686439 -109.10546875 30.38671875 C-82.33374879 0.03881356 -38.85581497 -13.14301012 0 0 Z M-71 48 C-71.84820312 48.64839844 -72.69640625 49.29679687 -73.5703125 49.96484375 C-88.07484949 62.11414242 -95.51298674 81.01235147 -97.4375 99.375 C-99.62458666 124.94089194 -91.57664723 146.27258104 -75.35546875 166 C-65.38075402 176.9090551 -50.46020388 184.27853438 -35.7734375 185.203125 C-18.65198885 185.43928291 -3.55252556 180.17543292 8.87402344 168.2487793 C23.41626356 153.72863238 33.18153308 134.85311369 34 114 C34.03996094 113.01773438 34.07992187 112.03546875 34.12109375 111.0234375 C34.55960745 89.40729159 28.37469236 69.16620241 13.30859375 53.3125 C12.54675781 52.549375 11.78492188 51.78625 11 51 C10.28972656 50.278125 9.57945312 49.55625 8.84765625 48.8125 C-13.73597389 27.24982963 -47.67127862 29.19495696 -71 48 Z " fill="#000000" transform="translate(288,413)"/>
<path d="M0 0 C8.86671397 6.47511824 15.38780597 14.2414459 17.40625 25.20703125 C18.88887764 35.90553752 16.71894548 45.65456991 10.27734375 54.31640625 C3.00865188 63.0879688 -4.94307148 66.90981416 -16.109375 68.25390625 C-25.89528566 68.80748879 -35.67577674 65.33082382 -43.06640625 58.984375 C-46.32085702 55.64445381 -48.7656703 52.08194849 -51 48 C-51.3403125 47.40960938 -51.680625 46.81921875 -52.03125 46.2109375 C-55.87991149 38.12162121 -55.150456 26.47056452 -52.5625 18.125 C-48.88554122 9.4977893 -41.62569989 1.81949811 -33 -2 C-22.26163731 -5.59645876 -10.0202098 -5.68879491 0 0 Z " fill="#000000" transform="translate(663,222)"/>
</svg>
